<svg version="1.1" id="Layer_1" xmlns="http://www.w3.org/2000/svg" xmlns:xlink="http://www.w3.org/1999/xlink" x="0px" y="0px"
	 width="100%" viewBox="0 0 1024 944" enable-background="new 0 0 1024 944" xml:space="preserve">
<path fill="green" opacity="1.000000" stroke="none" 
	d="
M256.750977,628.934570 
	C254.728516,619.373901 257.045898,615.836914 266.354248,615.725281 
	C285.671570,615.493591 304.995117,615.789551 324.316193,615.854919 
	C326.748199,615.863159 328.837952,616.871948 330.909576,617.961487 
	C341.517059,623.540222 352.215881,628.955566 362.678192,634.794617 
	C366.536438,636.947937 368.344635,636.398376 370.356354,632.479919 
	C382.453735,608.916199 394.400177,585.276428 407.324707,562.138245 
	C418.457367,542.208008 433.507599,526.997314 455.322327,519.115356 
	C458.165649,518.088074 460.507935,518.103027 463.363403,519.508972 
	C487.313477,531.301147 509.377869,546.412964 532.973328,558.805969 
	C536.398743,560.605103 537.486877,562.714478 537.548645,566.586975 
	C538.723083,640.241638 537.664612,713.902344 538.287903,787.557190 
	C538.316406,790.932129 537.961182,793.337280 533.570679,793.332153 
	C504.417297,793.298096 475.239105,793.941895 446.311279,789.206482 
	C444.177185,788.857117 442.043823,788.441895 439.954865,787.888428 
	C428.804993,784.934387 424.125305,778.380737 425.148010,766.988892 
	C428.259521,732.329590 431.464569,697.678589 434.538513,663.015991 
	C435.464966,652.569031 436.109070,642.096497 436.814880,631.631042 
	C436.934265,629.860596 437.418335,627.987305 436.105499,626.050903 
	C433.771729,626.457642 433.386169,628.612732 432.541656,630.244568 
	C422.359009,649.920776 411.851593,669.440674 402.196472,689.373108 
	C397.457336,699.156738 384.670563,703.952942 374.367310,698.547241 
	C340.445984,680.749817 305.485626,664.981140 271.883606,646.541199 
	C264.827820,642.669128 259.135101,637.444214 256.750977,628.934570 
M515.223267,738.816833 
	C517.349243,735.949829 518.392334,732.926758 516.014893,729.734924 
	C514.228455,727.336487 511.843384,725.898193 508.719391,726.720276 
	C506.028503,727.428406 503.868866,728.885071 503.267090,731.852600 
	C502.656342,734.864502 503.444427,737.432922 505.965210,739.313965 
	C508.845947,741.463745 511.766663,741.332886 515.223267,738.816833 
M505.846527,655.148560 
	C505.103119,656.027771 504.048737,656.792297 503.674347,657.807617 
	C502.525696,660.922424 503.238068,663.734619 505.817078,665.905029 
	C508.268066,667.967773 510.968750,668.203308 513.652466,666.417297 
	C516.290955,664.661560 517.283630,662.038818 516.548523,659.015076 
	C515.732300,655.658081 513.236877,654.127747 509.900543,654.063416 
	C508.774658,654.041748 507.639679,654.492737 505.846527,655.148560 
M516.543945,623.577698 
	C515.822510,619.617004 513.519531,617.255310 509.431580,617.451904 
	C506.363922,617.599365 504.087189,619.480652 503.433929,622.526794 
	C502.722168,625.845764 504.413757,628.324341 507.253510,629.904846 
	C511.218933,632.112000 514.659607,629.986877 516.543945,623.577698 
M516.000549,694.591003 
	C514.183411,691.326538 511.351318,690.481140 507.924835,691.366699 
	C505.402863,692.018494 504.034637,693.913391 503.579803,696.354492 
	C503.068054,699.101257 504.334808,701.239258 506.509430,702.784241 
	C508.761169,704.384216 511.260040,704.390503 513.577942,703.028687 
	C516.568909,701.271362 517.352234,698.553040 516.000549,694.591003 
z"/>
<path fill="green" opacity="1.000000" stroke="none" 
	d="
M604.776367,652.133240 
	C599.508850,642.703491 595.480896,633.011169 589.596252,623.750427 
	C587.702454,626.121826 588.348328,628.311157 588.514465,630.291077 
	C590.365417,652.349548 592.009277,674.430847 594.283691,696.446655 
	C596.420654,717.131226 599.256409,737.743347 601.761414,758.390137 
	C602.484985,764.352905 602.911072,770.321289 601.520203,776.261719 
	C600.184204,781.968018 596.756958,785.799316 591.060547,787.194763 
	C578.247681,790.333740 565.220886,791.956970 552.031250,792.379211 
	C548.253967,792.500183 547.646790,790.374939 547.654175,787.322144 
	C547.680725,776.325989 547.607178,765.329651 547.606140,754.333374 
	C547.600220,691.854248 547.532043,629.374939 547.705750,566.896301 
	C547.725342,559.858765 545.968628,555.019104 539.199036,551.714050 
	C531.593994,548.001160 524.550964,543.135925 517.271423,538.758789 
	C516.025574,538.009583 514.463135,537.516418 514.415894,535.615723 
	C515.374268,533.874817 517.132446,533.973328 518.741150,533.729736 
	C533.312195,531.523438 547.485107,527.964539 560.585632,520.981934 
	C564.758911,518.757568 568.552612,518.829102 572.918152,520.790466 
	C593.583374,530.075073 609.171204,544.363464 619.591370,564.728516 
	C630.892456,586.815125 643.180420,608.394897 654.071899,630.704651 
	C657.201599,637.115417 657.319702,636.987183 663.822998,634.004944 
	C675.167114,628.802795 685.798828,622.108032 697.649231,617.961731 
	C700.666077,616.906128 703.710388,615.965515 706.884460,615.976562 
	C726.863525,616.046021 746.846985,615.274292 766.824707,616.480835 
	C770.268250,616.688782 771.078430,618.068787 771.139954,621.021362 
	C771.351562,631.167297 767.452942,639.188538 758.828003,644.633545 
	C742.610352,654.871948 725.478455,663.422729 708.300903,671.903381 
	C690.981750,680.454102 673.803162,689.289551 656.559143,697.992554 
	C653.434814,699.569397 650.281372,701.082275 646.842468,701.878784 
	C638.824585,703.735718 632.265381,701.233215 627.507874,694.717468 
	C624.776672,690.976929 622.645142,686.770447 620.482971,682.648193 
	C615.226624,672.626709 610.110168,662.531799 604.776367,652.133240 
z"/>
<path fill="green" opacity="1.000000" stroke="none" 
	d="
M588.428101,339.528534 
	C583.481018,342.793091 578.389587,344.891479 572.976685,345.980011 
	C568.995483,346.780640 567.524841,348.459015 567.893555,352.770782 
	C569.239990,368.516235 570.049011,384.307129 571.327637,400.059235 
	C571.716492,404.849823 569.806274,406.128143 565.384094,406.116028 
	C529.909912,406.018646 494.435272,406.023407 458.961060,406.112366 
	C454.445587,406.123688 452.898102,404.768677 453.323822,399.928192 
	C454.693787,384.350525 455.463654,368.721069 456.644958,353.125183 
	C456.949585,349.103271 455.042969,347.337006 451.550323,346.440430 
	C444.356110,344.593658 437.763123,341.551788 432.148682,336.574921 
	C417.972076,324.008209 414.089844,304.422119 422.529572,287.951599 
	C430.861908,271.690643 448.067017,263.830963 466.746857,268.053589 
	C469.665680,268.713409 471.102783,267.409241 472.766998,265.760742 
	C482.214783,256.402435 493.444977,250.987930 506.769226,249.568985 
	C522.728577,247.869431 536.312927,252.978226 548.069946,263.340179 
	C551.429565,266.301147 554.254517,267.522644 559.015259,266.646912 
	C584.784302,261.907043 607.892517,286.003265 603.904175,312.848145 
	C602.286438,323.736694 597.828979,332.814026 588.428101,339.528534 
z"/>
<path fill="#000000" opacity="1.000000" stroke="none" 
	d="
M445.885132,428.139160 
	C446.158142,426.907867 446.370972,426.101440 446.533630,425.285034 
	C448.295654,416.440338 449.006195,415.867340 457.876923,415.539429 
	C478.855286,414.763977 499.825897,415.053894 520.810669,415.474365 
	C536.608765,415.790894 552.429321,415.392609 568.229797,414.952423 
	C573.522766,414.804993 575.854126,416.858215 577.386963,421.803223 
	C587.036987,452.935425 573.817139,488.529022 545.605225,503.767273 
	C505.554260,525.400269 459.897858,503.325134 447.839569,464.567383 
	C444.174561,452.787354 443.354248,440.738922 445.885132,428.139160 
z"/>
<path fill="#000000" opacity="1.000000" stroke="none" 
	d="
M824.354980,572.964111 
	C827.760132,575.945862 827.685852,578.206299 823.683228,579.382080 
	C815.169312,581.883057 811.131165,588.377808 807.412659,595.504211 
	C804.441833,601.197754 800.200500,604.472839 793.161926,604.411560 
	C764.869751,604.164795 736.572266,604.143494 708.280823,604.433716 
	C699.673096,604.522034 693.460144,601.781982 689.748657,593.824585 
	C688.630432,591.427063 686.914368,589.315918 685.653015,586.976074 
	C683.611877,583.189514 680.600464,581.016113 676.307373,580.340393 
	C673.696960,579.929504 670.466614,579.272217 671.007263,575.700500 
	C671.501465,572.435669 674.747192,572.865295 677.136475,572.861755 
	C707.760681,572.816162 738.384888,572.846558 769.009155,572.855835 
	C787.315369,572.861389 805.621643,572.863770 824.354980,572.964111 
z"/>
<path fill="#000000" opacity="1.000000" stroke="none" 
	d="
M345.945862,572.640930 
	C349.597534,572.623108 352.759918,572.624573 355.921539,572.577271 
	C357.677490,572.551025 359.413391,572.681641 359.887939,574.738281 
	C360.319550,576.608826 359.104370,577.857361 357.735992,578.912109 
	C357.476196,579.112305 357.172241,579.345337 356.866486,579.382935 
	C347.173065,580.576599 343.341187,588.396790 339.234009,595.515564 
	C335.480286,602.021729 330.533905,604.596069 322.967773,604.501892 
	C294.845825,604.151733 266.716797,604.229370 238.591644,604.376770 
	C231.713974,604.412842 226.725662,601.973816 223.411667,595.946106 
	C222.051285,593.471741 220.291748,591.214722 218.961349,588.726440 
	C216.838898,584.756897 214.314545,581.521912 209.416779,580.843750 
	C208.032791,580.652222 206.615585,579.692200 205.504379,578.743835 
	C202.998199,576.604919 203.525177,574.143982 206.707703,573.222656 
	C208.270035,572.770386 209.995575,572.759094 211.647522,572.757080 
	C256.250427,572.701477 300.853333,572.672974 345.945862,572.640930 
z"/>
<path fill="#000000" opacity="1.000000" stroke="none" 
	d="
M772.166321,533.125488 
	C768.147461,539.661377 765.843262,546.041138 769.576721,553.197205 
	C770.190979,554.374695 770.648499,555.891663 769.223511,556.795715 
	C767.809509,557.692749 766.337646,557.026001 764.993774,556.251099 
	C759.752075,553.228516 756.652466,545.457458 758.310059,539.218994 
	C759.080505,536.319580 760.014099,533.431396 761.867432,531.012634 
	C765.790955,525.891968 766.872498,520.238464 765.304016,514.032104 
	C764.925171,512.533325 764.558472,510.946594 766.095093,509.957764 
	C767.821655,508.846741 769.261536,509.976135 770.609680,510.987854 
	C777.411621,516.092041 778.008789,523.611145 772.166321,533.125488 
z"/>
<path fill="#000000" opacity="1.000000" stroke="none" 
	d="
M757.291077,523.805054 
	C756.770996,528.315613 754.744263,531.769409 752.765381,535.248108 
	C749.519043,540.954895 747.391418,546.771118 750.966370,553.183350 
	C751.538025,554.208740 751.953186,555.407532 750.724426,556.326050 
	C749.316589,557.378479 747.862305,556.883057 746.469177,556.256775 
	C741.542053,554.041687 738.135010,546.197754 739.247986,539.933533 
	C739.944641,536.012451 742.088440,532.851013 744.348328,529.753784 
	C747.044617,526.058411 748.429688,522.237671 746.756714,517.619568 
	C745.965210,515.434692 745.465881,512.809814 748.146545,511.419800 
	C751.088806,509.894135 752.788086,512.195435 754.377441,514.100891 
	C756.597839,516.762878 757.650818,519.868225 757.291077,523.805054 
z"/>
<path fill="#000000" opacity="1.000000" stroke="none" 
	d="
M261.784515,556.498657 
	C254.232208,552.176270 251.955643,545.224609 255.158386,536.699524 
	C256.322784,533.600098 257.797668,530.613525 259.202271,527.608948 
	C260.998566,523.766479 262.209229,519.923401 260.623657,515.640076 
	C259.908051,513.706848 259.792480,511.493958 261.955414,510.352081 
	C264.247620,509.141937 265.693939,511.058594 266.984406,512.485962 
	C270.682770,516.576843 272.290161,521.312561 270.376740,526.708069 
	C269.441528,529.345154 268.226929,531.926819 266.810486,534.340942 
	C263.333069,540.267334 261.928986,546.235229 265.214386,552.756836 
	C266.794922,555.894165 266.081451,557.649658 261.784515,556.498657 
z"/>
<path fill="#000000" opacity="1.000000" stroke="none" 
	d="
M303.550201,556.050293 
	C298.437347,558.494324 296.024231,554.690063 293.868164,551.589355 
	C290.076630,546.136658 290.942627,540.172791 293.457764,534.423462 
	C294.452942,532.148682 295.892334,530.068848 297.119965,527.894958 
	C299.412018,523.836182 300.678375,519.676880 298.844299,515.019043 
	C298.192169,513.362793 297.434937,511.362152 299.674652,510.183044 
	C301.561218,509.189911 303.213531,510.070374 304.715698,511.267761 
	C308.639709,514.395569 310.383209,520.831604 308.492126,525.838318 
	C307.731903,527.851013 306.813812,529.875854 305.585907,531.627686 
	C300.208252,539.299988 299.675446,547.287964 303.550201,556.050293 
z"/>
<path fill="#000000" opacity="1.000000" stroke="none" 
	d="
M721.510742,549.912842 
	C719.733582,543.427856 720.459412,537.639038 723.919800,532.346436 
	C727.343933,527.109314 728.882202,521.549866 727.631775,515.322937 
	C727.304871,513.695190 726.865234,511.849731 729.007019,511.109039 
	C731.121277,510.377930 732.850586,511.215881 734.309814,512.856384 
	C738.918518,518.037476 739.342712,526.196533 734.968018,532.796204 
	C731.956177,537.339905 729.901978,542.045410 729.923340,547.608459 
	C729.935242,550.708069 731.313538,553.327209 732.501099,556.026550 
	C727.836487,557.663025 725.235046,556.232544 721.510742,549.912842 
z"/>
<path fill="#000000" opacity="1.000000" stroke="none" 
	d="
M277.722778,527.631836 
	C280.046875,523.486328 280.288391,519.414734 279.746124,515.190369 
	C279.539948,513.584229 279.150177,511.715057 281.290588,510.970032 
	C283.029297,510.364807 284.559448,510.925110 285.830872,512.211975 
	C288.787506,515.204407 290.469482,518.688782 289.804230,522.996887 
	C289.188263,526.985657 287.797119,530.736755 285.712372,534.166931 
	C281.692841,540.780457 279.559296,547.449646 284.180634,554.695251 
	C284.476593,555.159302 284.296906,555.926636 284.355164,556.803894 
	C279.427277,557.787231 276.594696,555.195679 274.652710,551.529480 
	C271.458069,545.498596 272.026581,539.339478 274.809235,533.295166 
	C275.641998,531.486267 276.633575,529.750427 277.722778,527.631836 
z"/>
</svg>